<?xml version="1.0" encoding="UTF-8" standalone="no"?>
<!-- Created with Inkscape (http://www.inkscape.org/) -->

<svg
   xmlns:dc="http://purl.org/dc/elements/1.1/"
   xmlns:cc="http://creativecommons.org/ns#"
   xmlns:rdf="http://www.w3.org/1999/02/22-rdf-syntax-ns#"
   xmlns:svg="http://www.w3.org/2000/svg"
   xmlns="http://www.w3.org/2000/svg"
   xmlns:sodipodi="http://sodipodi.sourceforge.net/DTD/sodipodi-0.dtd"
   xmlns:inkscape="http://www.inkscape.org/namespaces/inkscape"
   width="190mm"
   height="89.688866mm"
   viewBox="0 0 673.22835 317.79519"
   id="svg6615"
   version="1.1"
   inkscape:version="0.91 r13725"
   sodipodi:docname="vpc.svg">
  <title
     id="title7382">Value Proposition Canvas</title>
  <defs
     id="defs6617" />
  <sodipodi:namedview
     id="base"
     pagecolor="#ffffff"
     bordercolor="#666666"
     borderopacity="1.0"
     inkscape:pageopacity="0.0"
     inkscape:pageshadow="2"
     inkscape:zoom="0.35"
     inkscape:cx="-859.8144"
     inkscape:cy="1036.0404"
     inkscape:document-units="px"
     inkscape:current-layer="layer1"
     showgrid="false"
     fit-margin-top="0"
     fit-margin-left="0"
     fit-margin-right="0"
     fit-margin-bottom="0"
     inkscape:window-width="2160"
     inkscape:window-height="1314"
     inkscape:window-x="0"
     inkscape:window-y="60"
     inkscape:window-maximized="1" />
  <metadata
     id="metadata6620">
    <rdf:RDF>
      <cc:Work
         rdf:about="">
        <dc:format>image/svg+xml</dc:format>
        <dc:type
           rdf:resource="http://purl.org/dc/dcmitype/StillImage" />
        <dc:title>Value Proposition Canvas</dc:title>
        <dc:date>2018-02-22</dc:date>
        <dc:creator>
          <cc:Agent>
            <dc:title></dc:title>
          </cc:Agent>
        </dc:creator>
        <dc:rights>
          <cc:Agent>
            <dc:title>Strategyzer AG</dc:title>
          </cc:Agent>
        </dc:rights>
      </cc:Work>
    </rdf:RDF>
  </metadata>
  <g
     inkscape:label="Layer 1"
     inkscape:groupmode="layer"
     id="layer1"
     transform="translate(-617.67154,-1250.6074)">
    <g
       transform="matrix(0.60188451,0,0,-0.60188451,596.0037,1641.4052)"
       id="g6165">
      <path
         d="m 38.282,123.572 523.436,0 0,523.436 -523.436,0 0,-523.436 z"
         style="fill:#ffffff;fill-opacity:1;fill-rule:nonzero;stroke:none"
         id="path5125"
         inkscape:connector-curvature="0" />
      <path
         d="m 38.282,123.572 523.436,0 0,523.436 -523.436,0 0,-523.436 z"
         style="fill:none;stroke:#231f20;stroke-width:4.56400013;stroke-linecap:butt;stroke-linejoin:miter;stroke-miterlimit:4;stroke-dasharray:none;stroke-opacity:1"
         id="path5127"
         inkscape:connector-curvature="0" />
      <path
         inkscape:connector-curvature="0"
         id="path5131"
         style="fill:#ffffff;fill-opacity:1;fill-rule:nonzero;stroke:none"
         d="m 890.5341,123.5723 c 144.312,0 261.718,117.406 261.718,261.718 0,144.311 -117.406,261.718 -261.718,261.718 -144.312,0 -261.718,-117.407 -261.718,-261.718 0,-144.312 117.406,-261.718 261.718,-261.718" />
      <path
         inkscape:connector-curvature="0"
         id="path5135"
         style="fill:none;stroke:#231f20;stroke-width:4.56400013;stroke-linecap:butt;stroke-linejoin:miter;stroke-miterlimit:4;stroke-dasharray:none;stroke-opacity:1"
         d="m 890.5341,123.5723 c 144.312,0 261.718,117.406 261.718,261.718 0,144.311 -117.406,261.718 -261.718,261.718 -144.312,0 -261.718,-117.407 -261.718,-261.718 0,-144.312 117.406,-261.718 261.718,-261.718 z" />
      <path
         inkscape:connector-curvature="0"
         id="path5139"
         style="fill:none;stroke:#231f20;stroke-width:2.01699996;stroke-linecap:butt;stroke-linejoin:miter;stroke-miterlimit:4;stroke-dasharray:none;stroke-opacity:1"
         d="M 37,648.2902 300,386.3272" />
      <path
         inkscape:connector-curvature="0"
         id="path5143"
         style="fill:none;stroke:#231f20;stroke-width:2.01699996;stroke-linecap:butt;stroke-linejoin:miter;stroke-miterlimit:4;stroke-dasharray:none;stroke-opacity:1"
         d="m 37,122.2902 263,264.028" />
      <path
         inkscape:connector-curvature="0"
         id="path5151"
         style="fill:none;stroke:#231f20;stroke-width:2.01699996;stroke-linecap:butt;stroke-linejoin:miter;stroke-miterlimit:4;stroke-dasharray:none;stroke-opacity:1"
         d="m 890.5341,386.3271 -289.259,0" />
      <path
         inkscape:connector-curvature="0"
         id="path5155"
         style="fill:none;stroke:#231f20;stroke-width:2.01699996;stroke-linecap:butt;stroke-linejoin:miter;stroke-miterlimit:4;stroke-dasharray:none;stroke-opacity:1"
         d="m 589.2585,386.3271 -289.259,0" />
      <path
         inkscape:connector-curvature="0"
         id="path5159"
         style="fill:#231f20;fill-opacity:1;fill-rule:nonzero;stroke:none"
         d="m 584.5195,391.5946 0,-10.552 7.93,5.276 -7.93,5.276 z" />
      <path
         inkscape:connector-curvature="0"
         id="path5163"
         style="fill:#231f20;fill-opacity:1;fill-rule:nonzero;stroke:none"
         d="m 606.0317,391.5946 0,-10.552 -7.93,5.276 7.93,5.276 z" />
      <text
         y="-533.18201"
         x="331.24179"
         transform="scale(1,-1)"
         style="font-variant:normal;font-weight:normal;font-stretch:normal;font-size:16px;font-family:'ARS Maquette Pro';-inkscape-font-specification:ARSMaquettePro-Regular;writing-mode:lr-tb;fill:#231f20;fill-opacity:1;fill-rule:nonzero;stroke:none"
         id="text5167">
        <tspan
           x="331.24179 342.7778 351.84979 355.73779 365.28979 369.6098 380.3298 386.47379 395.84979 404.92181 411.2258 420.82581 427.1138"
           y="-533.18201"
           sodipodi:role="line"
           id="tspan5169">Gain Creators</tspan>
      </text>
      <text
         y="-267.32541"
         x="330.08179"
         transform="scale(1,-1)"
         style="font-variant:normal;font-weight:normal;font-stretch:normal;font-size:16px;font-family:'ARS Maquette Pro';-inkscape-font-specification:ARSMaquettePro-Regular;writing-mode:lr-tb;fill:#231f20;fill-opacity:1;fill-rule:nonzero;stroke:none"
         id="text5171">
        <tspan
           x="330.08179 340.2258 349.29779 353.18579 362.73779 367.0578 377.50421 386.88019 390.8642 394.7522 404.1282 412.60818 421.98419 428.27219"
           y="-267.32541"
           sodipodi:role="line"
           id="tspan5173">Pain Relievers</tspan>
      </text>
      <text
         y="-267.32541"
         x="787.33148"
         transform="scale(1,-1)"
         style="font-variant:normal;font-weight:normal;font-stretch:normal;font-size:16px;font-family:'ARS Maquette Pro';-inkscape-font-specification:ARSMaquettePro-Regular;writing-mode:lr-tb;fill:#231f20;fill-opacity:1;fill-rule:nonzero;stroke:none"
         id="text5175">
        <tspan
           x="787.33148 797.47552 806.54749 810.43549 819.98749"
           y="-267.32541"
           sodipodi:role="line"
           id="tspan5177">Pains</tspan>
      </text>
      <text
         y="-533.18201"
         x="786.6355"
         transform="scale(1,-1)"
         style="font-variant:normal;font-weight:normal;font-stretch:normal;font-size:16px;font-family:'ARS Maquette Pro';-inkscape-font-specification:ARSMaquettePro-Regular;writing-mode:lr-tb;fill:#231f20;fill-opacity:1;fill-rule:nonzero;stroke:none"
         id="text5179">
        <tspan
           x="786.6355 798.17151 807.24353 811.13153 820.68347"
           y="-533.18201"
           sodipodi:role="line"
           id="tspan5181">Gains</tspan>
      </text>
      <text
         y="-410.62589"
         x="101.4428"
         transform="scale(1,-1)"
         style="font-variant:normal;font-weight:normal;font-stretch:normal;font-size:16px;font-family:'ARS Maquette Pro';-inkscape-font-specification:ARSMaquettePro-Regular;writing-mode:lr-tb;fill:#231f20;fill-opacity:1;fill-rule:nonzero;stroke:none"
         id="text5183">
        <tspan
           x="101.4428 111.5868 117.7308 127.3308 137.47481 147.02679 155.6028 161.9068"
           y="-410.62589"
           sodipodi:role="line"
           id="tspan5185">Products</tspan>
      </text>
      <text
         y="-392.62589"
         x="96.314697"
         transform="scale(1,-1)"
         style="font-variant:normal;font-weight:normal;font-stretch:normal;font-size:16px;font-family:'ARS Maquette Pro';-inkscape-font-specification:ARSMaquettePro-Regular;writing-mode:lr-tb;fill:#231f20;fill-opacity:1;fill-rule:nonzero;stroke:none"
         id="text5187">
        <tspan
           x="96.314697 107.0667 111.3867 121.0667 130.4427 136.7307 145.2907 149.1787 157.65871 167.0347"
           y="-392.62589"
           sodipodi:role="line"
           id="tspan5189">&amp; Services</tspan>
      </text>
      <text
         y="-410.62589"
         x="1016.9041"
         transform="scale(1,-1)"
         style="font-variant:normal;font-weight:normal;font-stretch:normal;font-size:16px;font-family:'ARS Maquette Pro';-inkscape-font-specification:ARSMaquettePro-Regular;writing-mode:lr-tb;fill:#231f20;fill-opacity:1;fill-rule:nonzero;stroke:none"
         id="text5191">
        <tspan
           x="1016.9041 1027.6241 1037.1761 1045.4641 1051.7681 1061.368 1076.1201 1085.4961"
           y="-410.62589"
           sodipodi:role="line"
           id="tspan5193">Customer</tspan>
      </text>
      <text
         y="-392.62589"
         x="1031.6001"
         transform="scale(1,-1)"
         style="font-variant:normal;font-weight:normal;font-stretch:normal;font-size:16px;font-family:'ARS Maquette Pro';-inkscape-font-specification:ARSMaquettePro-Regular;writing-mode:lr-tb;fill:#231f20;fill-opacity:1;fill-rule:nonzero;stroke:none"
         id="text5195">
        <tspan
           x="1031.6001 1039.696 1049.2961 1060.0641 1064.4481 1072.4641"
           y="-392.62589"
           sodipodi:role="line"
           id="tspan5197">Job(s)</tspan>
      </text>
      <path
         inkscape:connector-curvature="0"
         id="path5307"
         style="fill:#000000;fill-opacity:1;fill-rule:nonzero;stroke:none"
         d="m 814.2759,244.9073 c 1.602,0 2.901,1.299 2.901,2.901 0,1.603 -1.298,2.902 -2.901,2.902 -1.603,0 -2.901,-1.299 -2.901,-2.902 0,-1.602 1.298,-2.901 2.901,-2.901 m -12.945,0 c 1.603,0 2.902,1.299 2.902,2.901 0,1.603 -1.299,2.902 -2.902,2.902 -1.602,0 -2.901,-1.299 -2.901,-2.902 0,-1.602 1.299,-2.901 2.901,-2.901 m 6.472,-5.803 c -8.7,0 -10.043,-8.481 -10.043,-8.481 l 3.794,0 c 0,0 0.893,4.91 6.249,4.91 5.357,0 6.249,-4.91 6.249,-4.91 l 3.794,0 c 0,0 -1.342,8.481 -10.043,8.481" />
      <path
         inkscape:connector-curvature="0"
         id="path5311"
         style="fill:#000000;fill-opacity:1;fill-rule:nonzero;stroke:none"
         d="m 801.4493,511.1405 c 1.573,0 2.848,1.275 2.848,2.848 0,1.574 -1.275,2.849 -2.848,2.849 -1.573,0 -2.848,-1.275 -2.848,-2.849 0,-1.573 1.276,-2.848 2.848,-2.848 m 12.708,0 c 1.573,0 2.848,1.275 2.848,2.848 0,1.574 -1.275,2.849 -2.848,2.849 -1.573,0 -2.849,-1.275 -2.849,-2.849 0,-1.573 1.276,-2.848 2.849,-2.848 m 2.629,-6.135 c 0,0 -1.534,-6.573 -8.983,-6.573 -7.449,0 -8.983,6.573 -8.983,6.573 l -3.725,0 c 0,0 2.301,-10.079 12.708,-10.079 10.297,0 12.707,10.079 12.707,10.079 l -3.724,0 z" />
      <path
         inkscape:connector-curvature="0"
         id="path5315"
         style="fill:#000000;fill-opacity:1;fill-rule:nonzero;stroke:none"
         d="m 1037.5228,366.8432 -3.751,3.752 1.918,1.919 1.722,-1.722 5.641,6.31 2.022,-1.808 -7.552,-8.451 z" />
      <path
         inkscape:connector-curvature="0"
         id="path5319"
         style="fill:#000000;fill-opacity:1;fill-rule:nonzero;stroke:none"
         d="m 1037.5228,353.952 -3.751,3.752 1.918,1.918 1.722,-1.721 5.64,6.31 2.024,-1.807 -7.553,-8.452 z" />
      <path
         inkscape:connector-curvature="0"
         id="path5323"
         style="fill:#000000;fill-opacity:1;fill-rule:nonzero;stroke:none"
         d="m 1039.1674,339.9001 c -2.805,0 -5.089,2.283 -5.089,5.089 0,2.805 2.284,5.088 5.089,5.088 2.805,0 5.089,-2.283 5.089,-5.088 0,-2.806 -2.284,-5.089 -5.089,-5.089 m 0,7.463 c -1.309,0 -2.375,-1.065 -2.375,-2.374 0,-1.31 1.066,-2.375 2.375,-2.375 1.309,0 2.375,1.065 2.375,2.375 0,1.309 -1.066,2.374 -2.375,2.374" />
      <path
         d="m 1075.274,368.736 -25.329,0 0,4.07 25.329,0 0,-4.07 z"
         style="fill:#000000;fill-opacity:1;fill-rule:nonzero;stroke:none"
         id="path5325"
         inkscape:connector-curvature="0" />
      <path
         d="m 1075.274,355.843 -25.329,0 0,4.071 25.329,0 0,-4.071 z"
         style="fill:#000000;fill-opacity:1;fill-rule:nonzero;stroke:none"
         id="path5327"
         inkscape:connector-curvature="0" />
      <path
         d="m 1075.274,342.952 -25.329,0 0,4.071 25.329,0 0,-4.071 z"
         style="fill:#000000;fill-opacity:1;fill-rule:nonzero;stroke:none"
         id="path5329"
         inkscape:connector-curvature="0" />
      <path
         d="m 261.556,391.604 76.888,0 0,13.261 -76.888,0 0,-13.261 z"
         style="fill:#ffffff;fill-opacity:1;fill-rule:nonzero;stroke:none"
         id="path5331"
         inkscape:connector-curvature="0" />
      <path
         d="m 259.837,389.863 80.326,0 0,16.744 -80.326,0 0,-16.744 z m 76.889,3.483 -73.452,0 0,9.779 73.452,0 0,-9.779 z"
         style="fill:#000000;fill-opacity:1;fill-rule:nonzero;stroke:none"
         id="path5333"
         inkscape:connector-curvature="0" />
      <path
         inkscape:connector-curvature="0"
         id="path5337"
         style="fill:#ffffff;fill-opacity:1;fill-rule:nonzero;stroke:none"
         d="m 265.319,390.2679 0,-46.524 68.053,0 0,46.524" />
      <path
         inkscape:connector-curvature="0"
         id="path5341"
         style="fill:#000000;fill-opacity:1;fill-rule:nonzero;stroke:none"
         d="m 263.6007,342.0026 71.49,0 0,48.265 -3.437,0 0,-44.782 -64.616,0 0,44.782 -3.437,0 0,-48.265 z" />
      <path
         d="m 297.628,342.568 3.437,0 0,62.702 -3.437,0 0,-62.702 z"
         style="fill:#000000;fill-opacity:1;fill-rule:nonzero;stroke:none"
         id="path5343"
         inkscape:connector-curvature="0" />
      <path
         inkscape:connector-curvature="0"
         id="path5347"
         style="fill:#ffffff;fill-opacity:1;fill-rule:nonzero;stroke:none"
         d="m 299.7782,409.6852 8.725,0 c 4.925,0 8.872,3.909 8.872,8.899 0,4.99 -3.852,8.899 -8.776,8.899 -4.925,0 -8.821,-3.954 -8.821,-8.944 l 0,-8.854 z" />
      <path
         inkscape:connector-curvature="0"
         id="path5351"
         style="fill:#000000;fill-opacity:1;fill-rule:nonzero;stroke:none"
         d="m 298.0594,407.944 10.444,0 c 5.938,0 10.59,4.674 10.59,10.641 0,5.966 -4.61,10.64 -10.495,10.64 -5.909,0 -10.539,-4.694 -10.539,-10.686 l 0,-10.595 z m 10.539,17.798 c 3.958,0 7.058,-3.144 7.058,-7.157 0,-4.014 -3.142,-7.158 -7.153,-7.158 l -7.007,0 0,7.112 c 0,4.039 3.119,7.203 7.102,7.203" />
      <path
         inkscape:connector-curvature="0"
         id="path5355"
         style="fill:#ffffff;fill-opacity:1;fill-rule:nonzero;stroke:none"
         d="m 299.3517,409.6852 -8.725,0 c -4.925,0 -8.872,3.909 -8.872,8.899 0,4.99 3.852,8.899 8.776,8.899 4.925,0 8.821,-3.954 8.821,-8.944 l 0,-8.854 z" />
      <path
         inkscape:connector-curvature="0"
         id="path5359"
         style="fill:#000000;fill-opacity:1;fill-rule:nonzero;stroke:none"
         d="m 290.6259,407.944 10.444,0 0,10.595 c 0,5.992 -4.629,10.686 -10.539,10.686 -5.885,0 -10.495,-4.674 -10.495,-10.64 0,-5.967 4.653,-10.641 10.59,-10.641 m 7.007,3.483 -7.007,0 c -4.011,0 -7.153,3.144 -7.153,7.158 0,4.013 3.101,7.157 7.058,7.157 3.983,0 7.102,-3.164 7.102,-7.203 l 0,-7.112 z" />
      <path
         inkscape:connector-curvature="0"
         id="path5363"
         style="fill:#000000;fill-opacity:1;fill-rule:nonzero;stroke:none"
         d="m 372.9773,482.011 -3.261,3.261 14.138,14.137 6.559,-6.559 6.816,6.817 3.261,-3.261 -10.077,-10.078 -6.559,6.559 -10.877,-10.876 z" />
      <path
         inkscape:connector-curvature="0"
         id="path5367"
         style="fill:#000000;fill-opacity:1;fill-rule:nonzero;stroke:none"
         d="m 402.0814,492.1501 3.332,12.439 -12.439,-3.332 9.107,-9.107 z" />
      <path
         inkscape:connector-curvature="0"
         id="path5371"
         style="fill:#000000;fill-opacity:1;fill-rule:nonzero;stroke:none"
         d="m 404.1351,472.8902 -43.048,0 0,44.073 3.074,0 0,-40.998 39.974,0 0,-3.075 z" />
      <path
         d="m 366.691,508.764 -3.523,0 0,3.075 3.523,0 0,-3.075 z"
         style="fill:#000000;fill-opacity:1;fill-rule:nonzero;stroke:none"
         id="path5373"
         inkscape:connector-curvature="0" />
      <path
         d="m 366.691,499.539 -3.523,0 0,3.075 3.523,0 0,-3.075 z"
         style="fill:#000000;fill-opacity:1;fill-rule:nonzero;stroke:none"
         id="path5375"
         inkscape:connector-curvature="0" />
      <path
         d="m 366.691,490.315 -3.523,0 0,3.075 3.523,0 0,-3.075 z"
         style="fill:#000000;fill-opacity:1;fill-rule:nonzero;stroke:none"
         id="path5377"
         inkscape:connector-curvature="0" />
      <path
         d="m 366.691,481.09 -3.523,0 0,3.075 3.523,0 0,-3.075 z"
         style="fill:#000000;fill-opacity:1;fill-rule:nonzero;stroke:none"
         id="path5379"
         inkscape:connector-curvature="0" />
      <path
         inkscape:connector-curvature="0"
         id="path5383"
         style="fill:#000000;fill-opacity:1;fill-rule:nonzero;stroke:none"
         d="m 394.2461,208.4527 c -2.992,0 -5.798,1.158 -7.901,3.261 l -22.018,22.019 c -2.103,2.102 -3.262,4.908 -3.262,7.9 0,2.992 1.159,5.798 3.262,7.901 2.101,2.102 4.907,3.26 7.899,3.26 2.992,0 5.797,-1.158 7.9,-3.26 l 22.021,-22.02 c 4.355,-4.356 4.355,-11.445 0,-15.8 -2.104,-2.103 -4.909,-3.261 -7.901,-3.261 m -22.02,41.627 c -2.267,0 -4.39,-0.876 -5.981,-2.465 -1.59,-1.59 -2.466,-3.715 -2.466,-5.982 0,-2.267 0.876,-4.391 2.466,-5.981 l 22.019,-22.02 c 1.59,-1.59 3.715,-2.465 5.982,-2.465 2.267,0 4.392,0.875 5.982,2.465 3.297,3.298 3.297,8.665 0,11.963 l -22.02,22.02 c -1.591,1.589 -3.715,2.465 -5.982,2.465" />
      <path
         inkscape:connector-curvature="0"
         id="path5387"
         style="fill:#000000;fill-opacity:1;fill-rule:nonzero;stroke:none"
         d="m 378.5262,221.4512 -13.241,13.241 c -3.817,3.817 -3.817,10.064 0,13.881 3.818,3.818 10.065,3.818 13.882,0 l 13.241,-13.24 -13.882,-13.882 z" />
      <path
         d="m 102.643,346.806 -5.157,0 0,30.297 5.157,0 0,-30.297 z"
         style="fill:#000000;fill-opacity:1;fill-rule:nonzero;stroke:none"
         id="path5389"
         inkscape:connector-curvature="0" />
      <path
         d="m 125.849,346.806 -5.157,0 0,30.297 5.157,0 0,-30.297 z"
         style="fill:#000000;fill-opacity:1;fill-rule:nonzero;stroke:none"
         id="path5391"
         inkscape:connector-curvature="0" />
      <path
         d="m 107.477,346.806 -2.256,0 0,30.297 2.256,0 0,-30.297 z"
         style="fill:#000000;fill-opacity:1;fill-rule:nonzero;stroke:none"
         id="path5393"
         inkscape:connector-curvature="0" />
      <path
         d="m 113.601,346.806 -5.157,0 0,30.297 5.157,0 0,-30.297 z"
         style="fill:#000000;fill-opacity:1;fill-rule:nonzero;stroke:none"
         id="path5395"
         inkscape:connector-curvature="0" />
      <path
         d="m 118.758,346.806 -2.578,0 0,30.297 2.578,0 0,-30.297 z"
         style="fill:#000000;fill-opacity:1;fill-rule:nonzero;stroke:none"
         id="path5397"
         inkscape:connector-curvature="0" />
      <path
         d="m 131.65,346.806 -2.578,0 0,30.297 2.578,0 0,-30.297 z"
         style="fill:#000000;fill-opacity:1;fill-rule:nonzero;stroke:none"
         id="path5399"
         inkscape:connector-curvature="0" />
      <path
         inkscape:connector-curvature="0"
         id="path5403"
         style="fill:#000000;fill-opacity:1;fill-rule:nonzero;stroke:none"
         d="m 152.8359,363.5444 c 0,1.792 -1.453,3.244 -3.245,3.244 -1.791,0 -3.244,-1.452 -3.244,-3.244 l 6.489,0 z" />
      <path
         inkscape:connector-curvature="0"
         id="path5407"
         style="fill:#000000;fill-opacity:1;fill-rule:nonzero;stroke:none"
         d="m 142.6083,362.7838 0,14.319 -5.157,0 0,-17.686 c 1.506,1.397 3.24,2.551 5.157,3.367" />
      <path
         inkscape:connector-curvature="0"
         id="path5411"
         style="fill:#000000;fill-opacity:1;fill-rule:nonzero;stroke:none"
         d="m 165.9216,340.36 -32.66,0 c -1.424,0 -2.579,1.155 -2.579,2.578 0,1.424 1.155,2.579 2.579,2.579 l 32.66,0 c 1.424,0 2.578,-1.155 2.578,-2.579 0,-1.423 -1.154,-2.578 -2.578,-2.578" />
      <path
         inkscape:connector-curvature="0"
         id="path5415"
         style="fill:#000000;fill-opacity:1;fill-rule:nonzero;stroke:none"
         d="m 136.1621,358.0944 0,19.008 -2.578,0 0,-22.851 c 0.693,1.394 1.56,2.684 2.578,3.843" />
      <path
         inkscape:connector-curvature="0"
         id="path5419"
         style="fill:#000000;fill-opacity:1;fill-rule:nonzero;stroke:none"
         d="m 149.5916,361.6264 c -8.007,0 -14.599,-6.18 -15.256,-14.02 l 30.512,0 c -0.657,7.84 -7.249,14.02 -15.256,14.02" />
      <path
         inkscape:connector-curvature="0"
         id="path5453"
         style="fill:none;stroke:#231f20;stroke-width:2.01699996;stroke-linecap:butt;stroke-linejoin:miter;stroke-miterlimit:4;stroke-dasharray:none;stroke-opacity:1"
         d="m 890.5342,386.3271 184.026,184.018" />
      <path
         inkscape:connector-curvature="0"
         id="path5457"
         style="fill:none;stroke:#231f20;stroke-width:2.01699996;stroke-linecap:butt;stroke-linejoin:miter;stroke-miterlimit:4;stroke-dasharray:none;stroke-opacity:1"
         d="m 890.5341,386.6225 184.027,-184.027" />
      <path
         inkscape:connector-curvature="0"
         id="path5461"
         style="fill:#ffffff;fill-opacity:1;fill-rule:nonzero;stroke:none"
         d="m 860.0468,362.1504 c 3.706,-4.883 8.514,-9.006 14.287,-11.876 22.349,-11.11 49.285,-0.236 57.545,23.232 6.812,19.353 -2.056,41.117 -20.486,50.28 -22.348,11.111 -49.284,0.236 -57.545,-23.231 l -6.648,-16.383 c -0.897,-2.165 0.149,-4.666 2.323,-5.558 l 3.311,-1.36 c 0.788,-3.163 1.902,-6.239 3.404,-9.133 l 13.72,-0.781 -9.911,-5.19 z" />
      <path
         inkscape:connector-curvature="0"
         id="path5465"
         style="fill:#000000;fill-opacity:1;fill-rule:nonzero;stroke:none"
         d="m 892.846,344.1713 -10e-4,0 c -6.714,0.001 -13.203,1.534 -19.285,4.559 -5.864,2.914 -10.875,7.08 -14.897,12.379 l -1.231,1.622 6.189,3.241 -8.47,0.483 -0.454,0.874 c -1.376,2.654 -2.494,5.563 -3.326,8.658 l -2.509,1.031 c -3.063,1.259 -4.529,4.762 -3.265,7.811 l 6.643,16.372 c 6.028,17.129 22.372,28.688 40.642,28.688 6.713,0 13.202,-1.533 19.285,-4.559 19.306,-9.597 28.484,-32.122 21.349,-52.395 -6.055,-17.204 -22.401,-28.764 -40.67,-28.764 m -30.14,17.421 c 3.462,-4.116 7.626,-7.399 12.403,-9.774 5.598,-2.782 11.565,-4.194 17.736,-4.195 16.799,0 31.828,10.631 37.397,26.454 6.56,18.636 -1.877,39.342 -19.624,48.165 -5.598,2.783 -11.565,4.195 -17.736,4.195 -16.799,0 -31.828,-10.631 -37.397,-26.453 l -6.678,-16.458 c -0.538,-1.302 0.082,-2.784 1.378,-3.317 l 4.121,-1.692 0.211,-0.847 c 0.7,-2.812 1.648,-5.458 2.823,-7.882 l 18.954,-1.079 -13.588,-7.117 z" />
      <path
         inkscape:connector-curvature="0"
         id="path5469"
         style="fill:#000000;fill-opacity:1;fill-rule:nonzero;stroke:none"
         d="m 873.5424,395.845 c -0.536,-2.468 -3.346,-3.603 -5.457,-2.203 -1.173,0.777 -1.775,2.255 -1.478,3.626 0.536,2.468 3.346,3.602 5.458,2.203 1.173,-0.778 1.775,-2.255 1.477,-3.626" />
    </g>
  </g>
</svg>
